<svg width="100" height="100" viewBox="0 0 100 100" fill="none" xmlns="http://www.w3.org/2000/svg">
<g clip-path="url(#clip0_440_207)">
<path d="M100 50C100 22.3859 77.6141 0 50 0C22.3859 0 0 22.3855 0 50C0 74.9563 18.2844 95.6418 42.1875 99.3926V64.4531H29.4922V50H42.1875V38.9844C42.1875 26.4531 49.6523 19.5312 61.073 19.5312C66.5438 19.5312 72.2656 20.5078 72.2656 20.5078V32.8125H65.9609C59.7492 32.8125 57.8125 36.6668 57.8125 40.6211V50H71.6797L69.4629 64.4531H57.8125V99.3926C81.7156 95.6418 100 74.9566 100 50Z" fill="#1877F2"/>
<path d="M69.4629 64.4531L71.6797 50H57.8125V40.6211C57.8125 36.6664 59.7496 32.8125 65.9609 32.8125H72.2656V20.5078C72.2656 20.5078 66.5438 19.5312 61.073 19.5312C49.6523 19.5312 42.1875 26.4531 42.1875 38.9844V50H29.4922V64.4531H42.1875V99.3926C44.7719 99.7976 47.384 100.001 50 100C52.616 100.001 55.2281 99.7977 57.8125 99.3926V64.4531H69.4629Z" fill="white"/>
</g>
<defs>
<clipPath id="clip0_440_207">
<rect width="100" height="100" fill="white"/>
</clipPath>
</defs>
</svg>
