<svg width="100" height="100" viewBox="0 0 100 100" fill="none" xmlns="http://www.w3.org/2000/svg">
<g clip-path="url(#clip0_440_202)">
<path d="M76.5625 0H23.4375C10.4933 0 0 10.4933 0 23.4375V76.5625C0 89.5067 10.4933 100 23.4375 100H76.5625C89.5067 100 100 89.5067 100 76.5625V23.4375C100 10.4933 89.5067 0 76.5625 0Z" fill="url(#paint0_radial_440_202)"/>
<path d="M76.5625 0H23.4375C10.4933 0 0 10.4933 0 23.4375V76.5625C0 89.5067 10.4933 100 23.4375 100H76.5625C89.5067 100 100 89.5067 100 76.5625V23.4375C100 10.4933 89.5067 0 76.5625 0Z" fill="url(#paint1_radial_440_202)"/>
<path d="M50.0035 10.9375C39.3949 10.9375 38.0633 10.984 33.8969 11.1734C29.7383 11.3641 26.8996 12.0223 24.416 12.9883C21.8465 13.9859 19.6672 15.3207 17.4961 17.4926C15.323 19.6641 13.9883 21.8434 12.9875 24.4117C12.0188 26.8961 11.3598 29.7359 11.1727 33.8926C10.9863 38.0594 10.9375 39.3914 10.9375 50.0004C10.9375 60.6094 10.9844 61.9367 11.1734 66.1031C11.3648 70.2617 12.023 73.1004 12.9883 75.584C13.9867 78.1535 15.3215 80.3328 17.4934 82.5039C19.6641 84.677 21.8434 86.0148 24.4109 87.0125C26.8965 87.9785 29.7355 88.6367 33.8934 88.8273C38.0602 89.0168 39.3906 89.0633 49.9988 89.0633C60.6086 89.0633 61.9359 89.0168 66.1023 88.8273C70.2609 88.6367 73.1027 87.9785 75.5883 87.0125C78.1566 86.0148 80.3328 84.677 82.5031 82.5039C84.6762 80.3328 86.0105 78.1535 87.0117 75.5852C87.9719 73.1004 88.6312 70.2609 88.8266 66.1039C89.0137 61.9375 89.0625 60.6094 89.0625 50.0004C89.0625 39.3914 89.0137 38.0602 88.8266 33.8934C88.6312 29.7348 87.9719 26.8965 87.0117 24.4129C86.0105 21.8434 84.6762 19.6641 82.5031 17.4926C80.3305 15.3199 78.1574 13.9852 75.5859 12.9887C73.0957 12.0223 70.2555 11.3637 66.0969 11.1734C61.9301 10.984 60.6035 10.9375 49.9914 10.9375H50.0035ZM46.4992 17.977C47.5395 17.9754 48.7 17.977 50.0035 17.977C60.4336 17.977 61.6695 18.0145 65.7883 18.2016C69.5969 18.3758 71.6641 19.0121 73.041 19.5469C74.8641 20.2547 76.1637 21.1012 77.5301 22.4688C78.8973 23.8359 79.7434 25.1379 80.4531 26.9609C80.9879 28.3359 81.625 30.4031 81.7984 34.2117C81.9855 38.3297 82.0262 39.5664 82.0262 49.9914C82.0262 60.4164 81.9855 61.6535 81.7984 65.7711C81.6242 69.5797 80.9879 71.6469 80.4531 73.0223C79.7453 74.8453 78.8973 76.1434 77.5301 77.5098C76.1629 78.877 74.8648 79.723 73.041 80.4313C71.6656 80.9684 69.5969 81.6031 65.7883 81.7773C61.6703 81.9645 60.4336 82.0051 50.0035 82.0051C39.573 82.0051 38.3367 81.9645 34.2191 81.7773C30.4105 81.6016 28.3434 80.9652 26.9652 80.4305C25.1426 79.7223 23.8402 78.8762 22.473 77.509C21.1059 76.1418 20.2598 74.843 19.55 73.0191C19.0152 71.6438 18.3781 69.5766 18.2047 65.768C18.0176 61.65 17.9801 60.4133 17.9801 49.9816C17.9801 39.5504 18.0176 38.3199 18.2047 34.202C18.3789 30.3934 19.0152 28.3262 19.55 26.9492C20.2582 25.1262 21.1059 23.8242 22.4734 22.457C23.8406 21.0898 25.1426 20.2434 26.9656 19.534C28.3426 18.9969 30.4105 18.3621 34.2191 18.1871C37.8227 18.0242 39.2191 17.9754 46.4992 17.9672V17.977ZM70.8551 24.4629C68.2672 24.4629 66.1676 26.5605 66.1676 29.1488C66.1676 31.7367 68.2672 33.8363 70.8551 33.8363C73.443 33.8363 75.5426 31.7367 75.5426 29.1488C75.5426 26.5609 73.443 24.4613 70.8551 24.4613V24.4629ZM50.0035 29.9398C38.9254 29.9398 29.9434 38.9219 29.9434 50.0004C29.9434 61.0789 38.9254 70.0566 50.0035 70.0566C61.082 70.0566 70.0609 61.0789 70.0609 50.0004C70.0609 38.9223 61.0813 29.9398 50.0027 29.9398H50.0035ZM50.0035 36.9793C57.1945 36.9793 63.0246 42.8086 63.0246 50.0004C63.0246 57.1914 57.1945 63.0215 50.0035 63.0215C42.8121 63.0215 36.9828 57.1914 36.9828 50.0004C36.9828 42.8086 42.8121 36.9793 50.0035 36.9793Z" fill="white"/>
</g>
<defs>
<radialGradient id="paint0_radial_440_202" cx="0" cy="0" r="1" gradientUnits="userSpaceOnUse" gradientTransform="translate(26.5625 107.702) rotate(-90) scale(99.1074 92.1777)">
<stop stop-color="#FFDD55"/>
<stop offset="0.1" stop-color="#FFDD55"/>
<stop offset="0.5" stop-color="#FF543E"/>
<stop offset="1" stop-color="#C837AB"/>
</radialGradient>
<radialGradient id="paint1_radial_440_202" cx="0" cy="0" r="1" gradientUnits="userSpaceOnUse" gradientTransform="translate(-16.7504 7.20351) rotate(78.681) scale(44.3016 182.612)">
<stop stop-color="#3771C8"/>
<stop offset="0.128" stop-color="#3771C8"/>
<stop offset="1" stop-color="#6600FF" stop-opacity="0"/>
</radialGradient>
<clipPath id="clip0_440_202">
<rect width="100" height="100" fill="white"/>
</clipPath>
</defs>
</svg>
