<svg width="100" height="100" viewBox="0 0 100 100" fill="none" xmlns="http://www.w3.org/2000/svg">
<g clip-path="url(#clip0_666_2)">
<path d="M2.11993 49.4016C2.1176 57.8035 4.31295 66.0074 8.48737 73.2384L1.7207 97.9446L27.0044 91.3151C33.9976 95.1221 41.8329 97.117 49.7951 97.1175H49.8161C76.1009 97.1175 97.4974 75.7287 97.5087 49.4392C97.5137 36.7 92.5571 24.7209 83.5517 15.7085C74.5478 6.6969 62.573 1.7314 49.8141 1.72559C23.5261 1.72559 2.13117 23.1132 2.12032 49.4016" fill="url(#paint0_linear_666_2)"/>
<path d="M0.417414 49.386C0.414701 58.0903 2.68873 66.5876 7.01199 74.0775L0.00268555 99.6694L26.193 92.8023C33.4093 96.7368 41.5341 98.8112 49.8015 98.8143H49.8228C77.0507 98.8143 99.2159 76.6562 99.2275 49.4256C99.2321 36.2287 94.0973 23.819 84.7701 14.4837C75.4418 5.14961 63.0387 0.00542636 49.8228 0C22.5903 0 0.428267 22.155 0.417414 49.386ZM16.0143 72.7876L15.0364 71.2353C10.9256 64.6988 8.75579 57.1454 8.75889 49.3891C8.7678 26.7554 27.188 8.34109 49.8383 8.34109C60.8073 8.34574 71.1159 12.6217 78.8694 20.3798C86.6225 28.1388 90.8887 38.4527 90.886 49.4225C90.8759 72.0562 72.4554 90.4729 49.8228 90.4729H49.8066C42.4372 90.469 35.2097 88.4899 28.9066 84.75L27.4066 83.8605L11.8647 87.9353L16.0143 72.7872V72.7876Z" fill="url(#paint1_linear_666_2)"/>
<path d="M37.4748 28.7395C36.55 26.6841 35.5767 26.6426 34.6973 26.6066C33.9771 26.5756 33.1539 26.5779 32.3314 26.5779C31.5081 26.5779 30.1705 26.8876 29.0399 28.1221C27.9081 29.3578 24.719 32.3438 24.719 38.4171C24.719 44.4907 29.1426 50.3601 29.7593 51.1845C30.3767 52.0074 38.2992 64.8694 50.8465 69.8175C61.2744 73.9295 63.3965 73.1116 65.6597 72.9054C67.9233 72.7 72.9636 69.9202 73.9919 67.0376C75.0209 64.1554 75.0209 61.6849 74.7124 61.1686C74.4039 60.6543 73.5806 60.3454 72.3461 59.7283C71.1112 59.1109 65.0422 56.1244 63.9109 55.7124C62.7791 55.3008 61.9562 55.0954 61.1329 56.3314C60.3097 57.5655 57.9457 60.3454 57.2252 61.1686C56.5054 61.9938 55.7849 62.0965 54.5508 61.4791C53.3155 60.8597 49.3399 59.5578 44.6233 55.3527C40.9535 52.0806 38.476 48.0399 37.7558 46.8039C37.0357 45.5698 37.6787 44.9008 38.2977 44.2857C38.8523 43.7326 39.5326 42.8442 40.1504 42.1237C40.7659 41.4027 40.9713 40.8884 41.3829 40.0651C41.795 39.2411 41.5888 38.5202 41.2806 37.9027C40.9713 37.2853 38.5725 31.1802 37.4748 28.7395Z" fill="white"/>
</g>
<defs>
<linearGradient id="paint0_linear_666_2" x1="4791.12" y1="9623.63" x2="4791.12" y2="1.72559" gradientUnits="userSpaceOnUse">
<stop stop-color="#1FAF38"/>
<stop offset="1" stop-color="#60D669"/>
</linearGradient>
<linearGradient id="paint1_linear_666_2" x1="4961.24" y1="9966.94" x2="4961.24" y2="0" gradientUnits="userSpaceOnUse">
<stop stop-color="#F9F9F9"/>
<stop offset="1" stop-color="white"/>
</linearGradient>
<clipPath id="clip0_666_2">
<rect width="99.23" height="100" fill="white"/>
</clipPath>
</defs>
</svg>
