<svg width="44" height="44" viewBox="0 0 44 44" fill="none" xmlns="http://www.w3.org/2000/svg">
<path d="M1.78198 26.8491C1.78198 24.7774 2.18169 22.7259 2.95834 20.812C3.73499 18.8979 4.8733 17.1588 6.30834 15.6939C7.74338 14.229 9.44695 13.0669 11.3219 12.2741C13.1969 11.4813 15.2065 11.0732 17.2359 11.0732V26.8491H1.78198Z" fill="#329DFF"/>
<path d="M1.78198 26.8491C1.78198 28.9208 2.18169 30.9723 2.95834 32.8863C3.73499 34.8003 4.8733 36.5394 6.30834 38.0044C7.74338 39.4693 9.44695 40.6314 11.3219 41.4242C13.1969 42.217 15.2065 42.625 17.2359 42.625V26.8491H1.78198Z" fill="#329DFF"/>
<path d="M32.6895 26.8491C32.6895 28.9208 32.2901 30.9723 31.5136 32.8863C30.7369 34.8003 29.5987 36.5394 28.1634 38.0044C26.7283 39.4693 25.0247 40.6314 23.1497 41.4242C21.2749 42.217 19.2652 42.625 17.2358 42.625V26.8491H32.6895Z" fill="#329DFF"/>
<path d="M42.2181 13.2202C42.2181 19.762 37.0229 25.0653 30.6146 25.0653H19.0112V13.2202C19.0112 6.67828 24.2063 1.375 30.6146 1.375C37.0229 1.375 42.2181 6.67828 42.2181 13.2202Z" fill="#ED686C"/>
</svg>
