<svg id="Layer_1" data-name="Layer 1" xmlns="http://www.w3.org/2000/svg" viewBox="0 0 566.3729 425.4757"><defs><style>.cls-1,.cls-2{fill:none;}.cls-1{stroke:#ffbd23;stroke-miterlimit:10;stroke-width:18.4644px;}.cls-2,.cls-3{stroke:#1d2db8;stroke-linecap:round;stroke-linejoin:round;}.cls-2{stroke-width:3.3808px;}.cls-3{fill:#1d2db8;stroke-width:0.9232px;}.cls-4{font-size:27.302px;font-family:Nougat-ExtraBlack, Nougat;font-weight:900;}</style></defs><path class="cls-1" d="M310.9906,172.974s92.85-139.5755,246.15-52.0547c0,0,.4482,94.3754-226.4119,153.6728,5.38,12.3116,13.1373,29.5043,23.1006,49.76,12.7343,25.89,19.4929,38.9553,29.18,50.8035a137.1351,137.1351,0,0,0,46.5872,36.5257,122.9707,122.9707,0,0,0,.3682-44.0985,119.7148,119.7148,0,0,0-20.9485-49.2383"/><path class="cls-1" d="M257.7113,171.986S163.5392,33.2988,11.0779,122.272a178.46,178.46,0,0,0,28.6507,54.33C55.718,197.21,72.1713,208.8837,82.2638,215.9258c56.297,39.282,135.7079,54.227,156.6755,57.8612-5.1506,12.1861-12.7744,29.4568-22.6268,49.9773-12.4878,26.0094-19.122,39.1388-28.6964,51.0784a137.134,137.134,0,0,1-46.2381,36.9667,122.9686,122.9686,0,0,1-.7871-44.093,119.7151,119.7151,0,0,1,20.48-49.4352"/><path class="cls-2" d="M272.8823,175.7688l24.5949-.1168.5171,108.8652s-13.7806,16.0067-26.6734.1267l-.1237-26.05"/><line class="cls-2" x1="271.1307" y1="244.597" x2="270.9516" y2="206.883"/><ellipse class="cls-3" cx="271.2145" cy="191.5595" rx="3.9441" ry="4.4268" transform="translate(-0.9068 1.2904) rotate(-0.2721)"/><text class="cls-4" transform="matrix(-0.1555, -0.9142, 0.9858, -0.1677, 279.0561, 134.1337)">j</text><text class="cls-4" transform="translate(277.5586 124.8553) rotate(-105.2034) scale(0.9273 1)">a</text><text class="cls-4" transform="translate(272.7095 108.0092) rotate(-111.5142) scale(0.9273 1)">s</text><text class="cls-4" transform="translate(267.9097 95.8749) rotate(-117.7223) scale(0.9273 1)">a</text><text class="cls-4" transform="matrix(-0.5249, -0.7645, 0.8244, -0.566, 259.542, 80.3715)"> </text><text class="cls-4" transform="matrix(-0.5886, -0.7166, 0.7727, -0.6347, 250.3545, 67.4086)">i</text><text class="cls-4" transform="translate(244.4595 60.142) rotate(-134.3646) scale(0.9273 1)">n</text><text class="cls-4" transform="translate(232.7563 48.5189) rotate(-139.3654) scale(0.9273 1)">t</text><text class="cls-4" transform="translate(225.3335 42.2401) rotate(-142.8686) scale(0.9273 1)">i</text><text class="cls-4" transform="translate(310.0962 137.5204) rotate(-81.4863) scale(0.9255 1)">s</text><text class="cls-4" transform="matrix(0.2051, -0.9025, 0.9751, 0.2216, 311.5278, 127.3959)">o</text><text class="cls-4" transform="translate(314.7261 113.8031) rotate(-73.4581) scale(0.9255 1)">l</text><text class="cls-4" transform="matrix(0.3213, -0.868, 0.9378, 0.3472, 316.5454, 107.2264)">u</text><text class="cls-4" transform="translate(321.4438 94.1615) rotate(-65.2605) scale(0.9255 1)">s</text><text class="cls-4" transform="translate(325.7993 84.807) rotate(-62.0809) scale(0.9255 1)">i</text><text class="cls-4" transform="matrix(0.4862, -0.7875, 0.8509, 0.5253, 328.894, 78.7142)"> </text><text class="cls-4" transform="translate(335.914 67.4281) rotate(-53.8753) scale(0.9255 1)">s</text><text class="cls-4" transform="translate(341.8667 59.1176) rotate(-49.2358) scale(0.9255 1)">u</text><text class="cls-4" transform="translate(350.9297 48.599) rotate(-43.9527) scale(0.9255 1)">k</text><text class="cls-4" transform="translate(360.4473 39.4843) rotate(-39.283) scale(0.9255 1)">s</text><text class="cls-4" transform="matrix(0.7629, -0.5239, 0.5661, 0.8243, 368.2827, 32.9672)">e</text><text class="cls-4" transform="matrix(0.8049, -0.4569, 0.4937, 0.8696, 379.3091, 25.4535)">s</text></svg>