<svg width="96" height="16" viewBox="0 0 96 16" fill="none" xmlns="http://www.w3.org/2000/svg">
<path d="M3.82665 10.6666C3.89999 10.3399 3.76665 9.87325 3.53332 9.63992L1.91332 8.01992C1.40665 7.51325 1.20665 6.97325 1.35332 6.50659C1.50665 6.03992 1.97999 5.71992 2.68665 5.59992L4.76665 5.25325C5.06665 5.19992 5.43332 4.93325 5.57332 4.65992L6.71999 2.35992C7.05332 1.69992 7.50665 1.33325 7.99999 1.33325C8.49332 1.33325 8.94665 1.69992 9.27999 2.35992L10.4267 4.65992C10.5133 4.83325 10.6933 4.99992 10.8867 5.11325L3.70665 12.2933C3.61332 12.3866 3.45332 12.2999 3.47999 12.1666L3.82665 10.6666Z" fill="#329DFF"/>
<path d="M12.4667 9.64001C12.2267 9.88001 12.0934 10.34 12.1734 10.6667L12.6334 12.6733C12.8267 13.5067 12.7067 14.1333 12.2934 14.4333C12.1267 14.5533 11.9267 14.6133 11.6934 14.6133C11.3534 14.6133 10.9534 14.4867 10.5134 14.2267L8.56003 13.0667C8.25337 12.8867 7.7467 12.8867 7.44003 13.0667L5.4867 14.2267C4.7467 14.66 4.11337 14.7333 3.7067 14.4333C3.55337 14.32 3.44003 14.1667 3.3667 13.9667L11.4734 5.86001C11.78 5.55335 12.2134 5.41335 12.6334 5.48668L13.3067 5.60001C14.0134 5.72001 14.4867 6.04001 14.64 6.50668C14.7867 6.97335 14.5867 7.51335 14.08 8.02001L12.4667 9.64001Z" fill="#329DFF"/>
<path d="M23.8267 10.6666C23.9 10.3399 23.7667 9.87325 23.5333 9.63992L21.9133 8.01992C21.4067 7.51325 21.2067 6.97325 21.3533 6.50659C21.5067 6.03992 21.98 5.71992 22.6867 5.59992L24.7667 5.25325C25.0667 5.19992 25.4333 4.93325 25.5733 4.65992L26.72 2.35992C27.0533 1.69992 27.5067 1.33325 28 1.33325C28.4933 1.33325 28.9467 1.69992 29.28 2.35992L30.4267 4.65992C30.5133 4.83325 30.6933 4.99992 30.8867 5.11325L23.7067 12.2933C23.6133 12.3866 23.4533 12.2999 23.48 12.1666L23.8267 10.6666Z" fill="#329DFF"/>
<path d="M32.4667 9.64001C32.2267 9.88001 32.0934 10.34 32.1734 10.6667L32.6334 12.6733C32.8267 13.5067 32.7067 14.1333 32.2934 14.4333C32.1267 14.5533 31.9267 14.6133 31.6934 14.6133C31.3534 14.6133 30.9534 14.4867 30.5134 14.2267L28.56 13.0667C28.2534 12.8867 27.7467 12.8867 27.44 13.0667L25.4867 14.2267C24.7467 14.66 24.1134 14.7333 23.7067 14.4333C23.5534 14.32 23.44 14.1667 23.3667 13.9667L31.4734 5.86001C31.78 5.55335 32.2134 5.41335 32.6334 5.48668L33.3067 5.60001C34.0134 5.72001 34.4867 6.04001 34.64 6.50668C34.7867 6.97335 34.5867 7.51335 34.08 8.02001L32.4667 9.64001Z" fill="#329DFF"/>
<path d="M43.8267 10.6666C43.9 10.3399 43.7667 9.87325 43.5333 9.63992L41.9133 8.01992C41.4067 7.51325 41.2067 6.97325 41.3533 6.50659C41.5067 6.03992 41.98 5.71992 42.6867 5.59992L44.7667 5.25325C45.0667 5.19992 45.4333 4.93325 45.5733 4.65992L46.72 2.35992C47.0533 1.69992 47.5067 1.33325 48 1.33325C48.4933 1.33325 48.9467 1.69992 49.28 2.35992L50.4267 4.65992C50.5133 4.83325 50.6933 4.99992 50.8867 5.11325L43.7067 12.2933C43.6133 12.3866 43.4533 12.2999 43.48 12.1666L43.8267 10.6666Z" fill="#329DFF"/>
<path d="M52.4667 9.64001C52.2267 9.88001 52.0934 10.34 52.1734 10.6667L52.6334 12.6733C52.8267 13.5067 52.7067 14.1333 52.2934 14.4333C52.1267 14.5533 51.9267 14.6133 51.6934 14.6133C51.3534 14.6133 50.9534 14.4867 50.5134 14.2267L48.56 13.0667C48.2534 12.8867 47.7467 12.8867 47.44 13.0667L45.4867 14.2267C44.7467 14.66 44.1134 14.7333 43.7067 14.4333C43.5534 14.32 43.44 14.1667 43.3667 13.9667L51.4734 5.86001C51.78 5.55335 52.2134 5.41335 52.6334 5.48668L53.3067 5.60001C54.0134 5.72001 54.4867 6.04001 54.64 6.50668C54.7867 6.97335 54.5867 7.51335 54.08 8.02001L52.4667 9.64001Z" fill="#329DFF"/>
<path d="M63.8267 10.6666C63.9 10.3399 63.7667 9.87325 63.5333 9.63992L61.9133 8.01992C61.4067 7.51325 61.2067 6.97325 61.3533 6.50659C61.5067 6.03992 61.98 5.71992 62.6867 5.59992L64.7667 5.25325C65.0667 5.19992 65.4333 4.93325 65.5733 4.65992L66.72 2.35992C67.0533 1.69992 67.5067 1.33325 68 1.33325C68.4933 1.33325 68.9467 1.69992 69.28 2.35992L70.4267 4.65992C70.5133 4.83325 70.6933 4.99992 70.8867 5.11325L63.7067 12.2933C63.6133 12.3866 63.4533 12.2999 63.48 12.1666L63.8267 10.6666Z" fill="#329DFF"/>
<path d="M72.4667 9.64001C72.2267 9.88001 72.0934 10.34 72.1734 10.6667L72.6334 12.6733C72.8267 13.5067 72.7067 14.1333 72.2934 14.4333C72.1267 14.5533 71.9267 14.6133 71.6934 14.6133C71.3534 14.6133 70.9534 14.4867 70.5134 14.2267L68.56 13.0667C68.2534 12.8867 67.7467 12.8867 67.44 13.0667L65.4867 14.2267C64.7467 14.66 64.1134 14.7333 63.7067 14.4333C63.5534 14.32 63.44 14.1667 63.3667 13.9667L71.4734 5.86001C71.78 5.55335 72.2134 5.41335 72.6334 5.48668L73.3067 5.60001C74.0134 5.72001 74.4867 6.04001 74.64 6.50668C74.7867 6.97335 74.5867 7.51335 74.08 8.02001L72.4667 9.64001Z" fill="#329DFF"/>
<path d="M83.8267 10.6666C83.9 10.3399 83.7667 9.87325 83.5333 9.63992L81.9133 8.01992C81.4067 7.51325 81.2067 6.97325 81.3533 6.50659C81.5067 6.03992 81.98 5.71992 82.6867 5.59992L84.7667 5.25325C85.0667 5.19992 85.4333 4.93325 85.5733 4.65992L86.72 2.35992C87.0533 1.69992 87.5067 1.33325 88 1.33325C88.4933 1.33325 88.9467 1.69992 89.28 2.35992L90.4267 4.65992C90.5133 4.83325 90.6933 4.99992 90.8867 5.11325L83.7067 12.2933C83.6133 12.3866 83.4533 12.2999 83.48 12.1666L83.8267 10.6666Z" fill="#329DFF"/>
<path d="M92.4667 9.64001C92.2267 9.88001 92.0934 10.34 92.1734 10.6667L92.6334 12.6733C92.8267 13.5067 92.7067 14.1333 92.2934 14.4333C92.1267 14.5533 91.9267 14.6133 91.6934 14.6133C91.3534 14.6133 90.9534 14.4867 90.5134 14.2267L88.56 13.0667C88.2534 12.8867 87.7467 12.8867 87.44 13.0667L85.4867 14.2267C84.7467 14.66 84.1134 14.7333 83.7067 14.4333C83.5534 14.32 83.44 14.1667 83.3667 13.9667L91.4734 5.86001C91.78 5.55335 92.2134 5.41335 92.6334 5.48668L93.3067 5.60001C94.0134 5.72001 94.4867 6.04001 94.64 6.50668C94.7867 6.97335 94.5867 7.51335 94.08 8.02001L92.4667 9.64001Z" fill="#329DFF"/>
</svg>
