<svg id="Layer_1" data-name="Layer 1" xmlns="http://www.w3.org/2000/svg" xmlns:xlink="http://www.w3.org/1999/xlink" viewBox="0 0 748.1961 717.3118"><defs><style>.cls-1,.cls-2{stroke:#000;}.cls-1,.cls-6{stroke-miterlimit:10;}.cls-1{stroke-width:12.067px;fill:url(#linear-gradient);}.cls-2,.cls-3,.cls-4,.cls-6{fill:none;}.cls-2,.cls-3,.cls-4,.cls-5{stroke-linecap:round;stroke-linejoin:round;}.cls-2{stroke-width:10.831px;}.cls-3{stroke:#ffbd23;stroke-width:3.3815px;}.cls-4,.cls-5{stroke:#1d2db8;}.cls-4{stroke-width:0.6192px;}.cls-5{fill:#1d2db8;stroke-width:0.1691px;}.cls-6{font-size:64.4294px;stroke:#fff;stroke-width:2.7184px;font-family:Arial-Black, Arial Black;font-weight:800;}</style><linearGradient id="linear-gradient" x1="303.0427" y1="242.2877" x2="688.3183" y2="242.2877" gradientUnits="userSpaceOnUse"><stop offset="0" stop-color="#b98517"/><stop offset="0.9988"/></linearGradient></defs><polygon class="cls-1" points="688.318 353.507 688.318 131.068 495.68 19.849 303.043 131.068 303.043 353.507 495.68 464.727 688.318 353.507"/><circle class="cls-2" cx="195.4117" cy="665.6495" r="46.2468"/><path class="cls-3" d="M56.6159,249.79s17.0044-25.5615,45.0792-9.5332c0,0,.0821,17.2836-41.4644,28.1432.9852,2.2547,2.4059,5.4033,4.2306,9.1129,2.3321,4.7414,3.57,7.1342,5.344,9.304a25.1143,25.1143,0,0,0,8.5318,6.6893,22.5215,22.5215,0,0,0,.0675-8.0761,21.925,21.925,0,0,0-3.8365-9.0174"/><path class="cls-3" d="M46.8585,249.6085S29.6121,224.21,1.6908,240.504c0,0,.0821,17.2837,41.73,27.748-.9637,2.264-2.3544,5.426-4.1438,9.1528-2.2869,4.7632-3.5019,7.1677-5.2553,9.3543a25.1153,25.1153,0,0,1-8.468,6.77,22.5221,22.5221,0,0,1-.1441-8.0751,21.9241,21.9241,0,0,1,3.7506-9.0534"/><path class="cls-4" d="M49.6369,250.3013l4.5042-.0214.0947,19.9372s-2.5237,2.9315-4.8849.0232l-.0226-4.7707"/><line class="cls-4" x1="49.3161" y1="262.9063" x2="49.2833" y2="255.9995"/><ellipse class="cls-5" cx="49.3314" cy="253.1931" rx="0.7223" ry="0.8107" transform="translate(-1.2021 0.2372) rotate(-0.2721)"/><text class="cls-6" transform="translate(385.8485 383.6373) scale(1.2656 1)">JISS</text></svg>