<svg width="100" height="100" viewBox="0 0 100 100" fill="none" xmlns="http://www.w3.org/2000/svg">
<path d="M90.625 2.34411H9.375C7.53149 2.32535 5.75583 3.03868 4.43765 4.32757C3.11946 5.61647 2.36642 7.37565 2.34375 9.21911V90.7972C2.37051 92.638 3.12536 94.3932 4.4431 95.6787C5.76084 96.9642 7.53416 97.6754 9.375 97.6566H90.625C92.4686 97.6712 94.2431 96.9555 95.5606 95.6658C96.8781 94.3761 97.6315 92.6173 97.6562 90.7738V9.19567C97.6234 7.35762 96.8663 5.60682 95.5497 4.32384C94.2331 3.04087 92.4633 2.32941 90.625 2.34411Z" fill="#0076B2"/>
<path d="M16.4531 38.0703H30.6016V83.5937H16.4531V38.0703ZM23.5313 15.4141C25.154 15.4141 26.7403 15.8954 28.0895 16.7971C29.4386 17.6988 30.4901 18.9804 31.1107 20.4798C31.7313 21.9792 31.8933 23.6289 31.5762 25.2204C31.259 26.8119 30.477 28.2735 29.329 29.4204C28.181 30.5674 26.7186 31.348 25.1268 31.6636C23.535 31.9793 21.8854 31.8157 20.3866 31.1936C18.8878 30.5716 17.6072 29.5189 16.7068 28.1689C15.8064 26.8189 15.3266 25.2321 15.3281 23.6094C15.3302 21.4351 16.1954 19.3506 17.7335 17.8139C19.2717 16.2772 21.357 15.4141 23.5313 15.4141ZM39.4766 38.0703H53.0391V44.3203H53.2266C55.1172 40.7422 59.7266 36.9687 66.6094 36.9687C80.9375 36.9375 83.5937 46.3672 83.5937 58.5937V83.5937H69.4453V61.4453C69.4453 56.1719 69.3516 49.3828 62.0938 49.3828C54.8359 49.3828 53.6016 55.1328 53.6016 61.1016V83.5937H39.4766V38.0703Z" fill="white"/>
</svg>
